<?xml version="1.0" encoding="UTF-8" standalone="no"?><!DOCTYPE svg PUBLIC "-//W3C//DTD SVG 1.1//EN" "http://www.w3.org/Graphics/SVG/1.1/DTD/svg11.dtd"><svg width="100%" height="100%" viewBox="0 0 32 32" version="1.1" xmlns="http://www.w3.org/2000/svg" xmlns:xlink="http://www.w3.org/1999/xlink" xml:space="preserve" xmlns:serif="http://www.serif.com/" style="fill-rule:evenodd;clip-rule:evenodd;stroke-miterlimit:1;"><path d="M6,2.5l0,27" style="fill:none;stroke:#b0ecff;stroke-width:1px;stroke-dasharray:2,0.65,0,0;"/><path d="M11.5,2.5l0,27" style="fill:none;stroke:#b0ecff;stroke-width:1px;stroke-dasharray:2,0.65,0,0;"/><path d="M20.5,2.5l0,27" style="fill:none;stroke:#b0ecff;stroke-width:1px;stroke-dasharray:2,0.65,0,0;"/><path d="M26,2.5l0,27" style="fill:none;stroke:#b0ecff;stroke-width:1px;stroke-dasharray:2,0.65,0,0;"/><path d="M2.5,27.5l27,0" style="fill:none;stroke:#b0ecff;stroke-width:1px;stroke-dasharray:2,0.65,0,0;"/><path d="M2.5,21.5l27,0" style="fill:none;stroke:#b0ecff;stroke-width:1px;stroke-dasharray:2,0.65,0,0;"/><path d="M2.5,10.5l27,0" style="fill:none;stroke:#b0ecff;stroke-width:1px;stroke-dasharray:2,0.65,0,0;"/><path d="M2.5,4.5l27,0" style="fill:none;stroke:#b0ecff;stroke-width:1px;stroke-dasharray:2,0.65,0,0;"/><path d="M16,5l0,22" style="fill:none;stroke:#ff0a0a;stroke-width:6px;stroke-linejoin:round;stroke-miterlimit:1.5;"/><path d="M5,16l22,0" style="fill:none;stroke:#ff0a0a;stroke-width:6px;stroke-linejoin:round;stroke-miterlimit:1.5;"/><path d="M30,4.501c0,-1.381 -1.12,-2.501 -2.501,-2.501l-22.998,0c-1.381,0 -2.501,1.12 -2.501,2.501l0,22.998c0,1.381 1.12,2.501 2.501,2.501l22.998,0c1.381,0 2.501,-1.12 2.501,-2.501l0,-22.998Z" style="fill:none;stroke:#0ac2ff;stroke-width:2px;stroke-dasharray:4,2,0,0;"/></svg>